<svg width="19" height="17" viewBox="0 0 19 17" fill="none" xmlns="http://www.w3.org/2000/svg">
<path d="M16 4.33301H2.66667C1.74619 4.33301 1 5.0792 1 5.99967V14.333C1 15.2535 1.74619 15.9997 2.66667 15.9997H16C16.9205 15.9997 17.6667 15.2535 17.6667 14.333V5.99967C17.6667 5.0792 16.9205 4.33301 16 4.33301Z" stroke="#8A8A8A" stroke-width="2" stroke-linecap="round" stroke-linejoin="round"/>
<path d="M12.6667 16V2.66667C12.6667 2.22464 12.4911 1.80072 12.1785 1.48816C11.866 1.17559 11.442 1 11 1H7.66667C7.22464 1 6.80072 1.17559 6.48816 1.48816C6.1756 1.80072 6 2.22464 6 2.66667V16" stroke="#8A8A8A" stroke-width="2" stroke-linecap="round" stroke-linejoin="round"/>
</svg>
