<svg width="20" height="22" viewBox="0 0 20 22" fill="none" xmlns="http://www.w3.org/2000/svg">
<path d="M13.9104 14.0651V12.307L11.52 14.8186L13.9104 17.3302V15.5721H19.2V14.0651H13.9104ZM16.8096 18.3349H11.52V19.8419H16.8096V21.6L19.2 19.0884L16.8096 16.5767V18.3349ZM7.2 4.0186C8.256 4.0186 9.12 3.11442 9.12 2.0093C9.12 0.904186 8.256 0 7.2 0C6.144 0 5.28 0.904186 5.28 2.0093C5.28 3.11442 6.144 4.0186 7.2 4.0186ZM3.6 7.43442L0.96 21.6H2.976L4.656 13.5628L6.72 15.5721V21.6H8.64V14.0149L6.672 11.9553L7.248 8.94139C8.496 10.5488 10.368 11.5535 12.48 11.5535V9.54419C10.704 9.54419 9.168 8.53953 8.304 7.08279L7.392 5.47535C7.056 4.87256 6.432 4.52093 5.76 4.52093C5.52 4.52093 5.28 4.57116 5.04 4.67163L0 6.83163V11.5535H1.92V8.18791L3.6 7.43442Z" fill="#8A8A8A"/>
</svg>
